<?xml version="1.0" encoding="UTF-8" standalone="no"?><!DOCTYPE svg PUBLIC "-//W3C//DTD SVG 1.1//EN" "http://www.w3.org/Graphics/SVG/1.1/DTD/svg11.dtd"><svg width="100%" height="100%" viewBox="0 0 256 256" version="1.1" xmlns="http://www.w3.org/2000/svg" xmlns:xlink="http://www.w3.org/1999/xlink" xml:space="preserve" xmlns:serif="http://www.serif.com/" style="fill-rule:evenodd;clip-rule:evenodd;stroke-linejoin:round;stroke-miterlimit:2;"><rect x="0" y="0" width="256" height="256"/><g><path d="M138.8,43.659c0,0 -1.171,23.155 -10.125,32.045c-8.145,10.012 -26.985,23.686 -29.152,32.303c-0.335,11.005 -0.826,14.418 0,23.814c0.826,-8.55 35.583,-32.948 42.642,-50.628c7.748,-19.407 -3.365,-37.534 -3.365,-37.534Z" style="fill:#fff;"/><path d="M113.992,116.943c-0.27,-0.257 -12.544,10.949 -13.492,16.141c2.657,1.841 32.953,23.768 36.822,28.745c3.455,4.444 1.691,10.389 1.691,10.389c0,0 4.898,1.654 12.907,-4.657c6.71,-5.287 3.774,-12.504 0,-17.13c-6.321,-7.747 -29.072,-25.07 -37.927,-33.489Z" style="fill:#fff;"/><path d="M99.635,156.49c-0.074,-0.836 -0.112,-1.682 -0.112,-2.537c0,-10.095 5.349,-17.678 13.188,-24.039c13.09,-10.623 28.284,-26.937 38.111,-48.722c3.526,22.128 -3.813,34.176 -12.193,46.311c-3.347,4.847 -7.248,9.282 -11.611,13.215l0.026,-0c-3.868,3.45 -6.304,8.47 -6.304,14.055c0,10.393 8.437,18.83 18.83,18.83c4.724,0 9.043,-1.743 12.35,-4.62l-0,0.48c-5.084,7.814 -13.894,12.985 -23.902,12.985c-14.872,0 -27.098,-11.418 -28.383,-25.958Z" style="fill:#fff;"/><path d="M127,205.357c-44.462,-15.279 -87.529,-11.125 -87.529,-11.125l0,-8.325c0,0 26.557,-2.148 58.662,3.726c-33.101,-13.932 -58.662,-11.596 -58.662,-11.596l0,-8.325c0,0 47.443,-2.084 87.529,27.319c40.086,-29.403 87.529,-27.319 87.529,-27.319l0,8.325c0,0 -25.562,-2.336 -58.662,11.596c32.105,-5.874 58.662,-3.726 58.662,-3.726l0,8.325c0,0 -43.067,-4.155 -87.529,11.125Z" style="fill:#fff;"/></g></svg>